<svg id="visual" viewBox="0 0 900 600" width="900" height="600" xmlns="http://www.w3.org/2000/svg" version="1.1">
    <rect width="900" height="600" fill="#efefef"></rect>
    <g>
        <g transform="translate(565 56)">
            <path d="M69.3 -81.8C85.7 -68.8 92.1 -43.1 106.5 -11.4C120.9 20.3 143.3 58 140.7 98.7C138 139.4 110.3 183.1 69.2 204.2C28 225.4 -26.5 224 -59.6 197.4C-92.8 170.8 -104.5 119 -120.4 76.7C-136.2 34.4 -156.2 1.7 -157.3 -33.9C-158.4 -69.6 -140.7 -108.1 -111.4 -118.8C-82 -129.5 -41 -112.4 -7.3 -103.7C26.4 -95 52.9 -94.8 69.3 -81.8Z" fill="#ff8886"></path>
        </g>
        <g transform="translate(180 398)">
            <path d="M113.3 -135.5C141.6 -111.2 155.7 -70.6 165 -27.6C174.4 15.4 179.1 60.7 161.7 95.8C144.4 130.8 105 155.6 62.7 170.1C20.4 184.5 -24.9 188.6 -68.3 177.3C-111.7 166 -153.4 139.3 -170.3 102.1C-187.3 64.9 -179.6 17.3 -170.8 -29.6C-161.9 -76.6 -151.9 -122.8 -123.2 -147C-94.6 -171.3 -47.3 -173.4 -2.4 -170.6C42.5 -167.7 85 -159.8 113.3 -135.5Z" fill="#ADD8E6"></path>
        </g>
        <g transform="translate(500 350)">
            <path d="M101.7 -122.1C116.8 -108.5 103.7 -62.2 103.7 -23.9C103.8 14.4 116.9 44.7 113 78.3C109.2 111.9 88.3 148.6 54.7 169.1C21 189.6 -25.6 193.8 -52 171.7C-78.5 149.6 -84.8 101.1 -90.5 65C-96.2 28.9 -101.3 5.1 -98 -18C-94.8 -41.1 -83.4 -63.4 -65.6 -76.5C-47.9 -89.7 -24 -93.7 9.7 -105.2C43.3 -116.7 86.6 -135.7 101.7 -122.1Z" fill="#94d391"></path>
        </g>
    </g>
</svg>
